<svg version="1.1" width="21px" height="24px" viewBox="0 0 21.0 24.0" xmlns="http://www.w3.org/2000/svg">
  <defs>
    <clipPath id="1171081035611097561164556">
      <path d="M10.5,0 C13.3994949,0 15.75,2.35050506 15.75,5.25 L15.75,6 L21,6 L21,21 C21,22.6568542 19.6568542,24 18,24 L3,24 C1.34314575,24 0,22.6568542 0,21 L0,6 L5.25,6 L5.25,5.25 C5.25,2.35050506 7.60050506,0 10.5,0 Z M19.5,7.5 L1.5,7.5 L1.5,21 C1.5,21.8284271 2.17157288,22.5 3,22.5 L18,22.5 C18.8284271,22.5 19.5,21.8284271 19.5,21 L19.5,7.5 Z M10.5,1.5 C8.42893219,1.5 6.75,3.17893219 6.75,5.25 L6.75,6 L14.25,6 L14.25,5.25 C14.25,3.17893219 12.5710678,1.5 10.5,1.5 Z">
      </path>
    </clipPath>
    <clipPath id="1151211201065110111497116100">
      <path d="M19,0 L19,12 L0,12 L0,0 L19,0 Z">
      </path>
    </clipPath>
  </defs>
  <g clip-path="url(#1171081035611097561164556)">
    <polygon points="0,0 21,0 21,24 0,24 0,0" stroke="none" fill="#000000">
    </polygon>
  </g>
  <g transform="translate(1.0 11.0)">
    <g clip-path="url(#1151211201065110111497116100)">
      <polygon points="0,0 19,0 19,12 0,12 0,0" stroke="none" fill="#000000">
      </polygon>
    </g>
  </g>
</svg>
